<?xml version="1.0" standalone="no"?>
<!DOCTYPE svg PUBLIC "-//W3C//DTD SVG 20010904//EN"
 "http://www.w3.org/TR/2001/REC-SVG-20010904/DTD/svg10.dtd">
<svg version="1.0" xmlns="http://www.w3.org/2000/svg"
 width="48.000000pt" height="48.000000pt" viewBox="0 0 48.000000 48.000000"
 preserveAspectRatio="xMidYMid meet">

<g transform="translate(0.000000,48.000000) scale(0.100000,-0.100000)"
fill="#000000" stroke="none">
<path d="M0 240 l0 -240 240 0 240 0 0 240 0 240 -240 0 -240 0 0 -240z m67
188 c10 24 23 11 23 -23 0 -19 -4 -35 -10 -35 -5 0 -10 7 -10 15 0 21 -18 19
-23 -2 -3 -10 -5 0 -6 22 0 31 2 37 10 25 8 -11 12 -12 16 -2z m63 -19 c0 -17
4 -28 10 -24 6 3 10 17 10 31 0 13 5 24 10 24 6 0 10 -10 10 -22 -1 -58 -53
-67 -58 -10 -2 18 1 32 7 32 6 0 11 -14 11 -31z m108 -1 c-2 -25 -8 -34 -25
-36 -20 -3 -23 1 -23 32 0 32 3 36 26 36 23 0 25 -3 22 -32z m54 25 c-10 -4
-10 -8 -1 -19 8 -10 8 -14 0 -14 -18 0 -13 -18 7 -23 10 -3 6 -5 -10 -6 -25
-1 -28 2 -28 34 0 30 3 35 23 34 12 0 16 -3 9 -6z m83 -30 c0 -33 -8 -42 -21
-22 -4 8 -9 7 -15 -2 -6 -9 -9 -1 -9 24 0 34 3 38 23 35 18 -2 22 -9 22 -35z
m48 30 c-10 -3 -9 -8 2 -20 21 -20 19 -45 -2 -41 -26 5 -31 68 -6 67 10 0 13
-3 6 -6z m-344 -115 c-2 -13 0 -29 4 -35 5 -7 4 -13 -2 -13 -5 0 -13 5 -17 11
-4 8 -9 7 -15 -2 -6 -9 -9 -1 -9 24 0 31 3 37 21 37 15 0 20 -5 18 -22z m69
-3 c17 -37 15 -42 -18 -42 -16 0 -30 1 -30 2 0 12 24 65 29 65 4 0 13 -11 19
-25z m57 8 c7 -17 8 -16 15 2 7 16 9 12 9 -17 1 -21 -3 -38 -9 -38 -5 0 -10 6
-11 13 0 10 -2 10 -6 0 -10 -25 -23 -12 -23 22 0 37 13 46 25 18z m76 5 c0
-10 2 -10 6 0 10 24 23 11 23 -23 0 -39 -19 -47 -28 -12 -6 22 -6 22 -13 -3
-6 -22 -7 -20 -8 13 -1 20 4 37 9 37 6 0 10 -6 11 -12z m86 5 c-14 -4 -16 -8
-6 -19 8 -10 8 -14 0 -14 -18 0 -13 -18 7 -23 10 -3 6 -5 -10 -6 -25 -1 -28 2
-28 34 0 32 3 35 28 34 17 -1 21 -3 9 -6z m78 -30 c0 -33 -8 -42 -21 -22 -4 8
-9 7 -15 -2 -6 -9 -9 -1 -9 24 0 34 3 38 23 35 18 -2 22 -9 22 -35z m-335
-253 c0 -5 -11 -10 -25 -10 -14 0 -25 5 -25 10 0 6 11 10 25 10 14 0 25 -4 25
-10z m93 2 c3 -4 -15 -8 -39 -9 -24 -1 -44 3 -44 8 0 11 77 12 83 1z m37 -2
c0 -5 -4 -10 -10 -10 -5 0 -10 5 -10 10 0 6 5 10 10 10 6 0 10 -4 10 -10z m50
-2 c0 -4 -7 -8 -15 -8 -8 0 -15 4 -15 8 0 5 7 9 15 9 8 0 15 -4 15 -9z m17
-10 c-3 -8 -6 -5 -6 6 -1 11 2 17 5 13 3 -3 4 -12 1 -19z m78 12 c4 -6 -5 -10
-19 -10 -14 0 -26 5 -26 10 0 6 9 10 19 10 11 0 23 -4 26 -10z m55 0 c0 -5 -9
-10 -20 -10 -11 0 -20 5 -20 10 0 6 9 10 20 10 11 0 20 -4 20 -10z"/>
<path d="M205 390 c3 -5 8 -10 11 -10 2 0 4 5 4 10 0 6 -5 10 -11 10 -5 0 -7
-4 -4 -10z"/>
<path d="M340 419 c0 -5 5 -7 10 -4 6 3 10 8 10 11 0 2 -4 4 -10 4 -5 0 -10
-5 -10 -11z"/>
<path d="M410 390 c0 -5 5 -10 11 -10 5 0 7 5 4 10 -3 6 -8 10 -11 10 -2 0 -4
-4 -4 -10z"/>
<path d="M50 320 c0 -5 5 -10 10 -10 6 0 10 5 10 10 0 6 -4 10 -10 10 -5 0
-10 -4 -10 -10z"/>
<path d="M410 320 c0 -5 5 -10 10 -10 6 0 10 5 10 10 0 6 -4 10 -10 10 -5 0
-10 -4 -10 -10z"/>
</g>
</svg>
